<?xml version="1.0" encoding="utf-8"?>
<!-- Generator: Adobe Illustrator 23.0.3, SVG Export Plug-In . SVG Version: 6.00 Build 0)  -->
<svg version="1.1" id="Layer_1" xmlns="http://www.w3.org/2000/svg" xmlns:xlink="http://www.w3.org/1999/xlink" x="0px" y="0px"
	 viewBox="0 0 500 500" style="enable-background:new 0 0 500 500;" xml:space="preserve">
<style type="text/css">
	.st0{fill:#175898;}
	.st1{fill:#FFFFFF;}
</style>
<g>
	<g>
		<path class="st0" d="M232.94,11.89v54.13c44.63,1.99,85.08,19.75,115.95,47.95l38.27-38.27
			C346.42,37.72,292.57,13.98,232.94,11.89z"/>
		<path class="st0" d="M100.18,113.97c30.86-28.2,71.32-45.96,115.95-47.95V11.89C156.59,13.98,102.65,37.81,61.92,75.7
			L100.18,113.97z"/>
		<path class="st0" d="M348.88,386.51c-30.86,28.2-71.32,45.96-115.95,47.95v54.13c59.54-2.09,113.48-25.92,154.21-63.81
			L348.88,386.51z"/>
		<path class="st0" d="M360.75,125.94c28.2,30.86,45.96,71.32,47.95,115.95h54.13c-2.09-59.54-25.92-113.48-63.81-154.21
			L360.75,125.94z"/>
		<path class="st0" d="M408.8,258.69c-1.99,44.63-19.75,85.08-47.95,115.95l38.27,38.27c37.98-40.74,61.82-94.67,63.81-154.21
			L408.8,258.69L408.8,258.69z"/>
		<path class="st0" d="M216.13,434.46c-44.63-1.99-85.08-19.75-115.95-47.95l-38.27,38.27c40.74,37.98,94.68,61.82,154.21,63.81
			V434.46z"/>
	</g>
	<circle class="st0" cx="224.58" cy="250.24" r="164.85"/>
	<circle class="st1" cx="224.58" cy="145.21" r="34.57"/>
	<path class="st1" d="M309.19,131.73c-6.46,0-11.77,5.22-11.77,11.77v24.88c0,3.99-9.5,10.54-17.76,16.33
		c-18.99,13.2-45.96,31.91-55.08,71.41c-9.21-39.5-36.08-58.21-55.08-71.41c-8.36-5.79-17.76-12.34-17.76-16.33V143.5
		c0-6.46-5.22-11.77-11.77-11.77c-6.46,0-11.77,5.22-11.77,11.77v24.88c0,16.24,13.58,25.64,27.92,35.61
		c21.46,14.91,48.24,33.52,48.24,81.67c0,43.49-20.99,71.6-53.46,71.6c-6.46,0-11.77,5.22-11.77,11.77
		c0,6.55,5.22,11.77,11.77,11.77c36.84,0,64.57-25.83,73.69-65.43c9.12,39.69,36.94,65.43,73.69,65.43
		c6.46,0,11.77-5.22,11.77-11.77c0-6.55-5.22-11.77-11.77-11.77c-32.48,0-53.46-28.11-53.46-71.6c0-48.14,26.78-66.76,48.24-81.67
		c14.34-9.97,27.92-19.37,27.92-35.61V143.5C320.97,136.95,315.74,131.73,309.19,131.73z"/>
</g>
</svg>
